<svg width="344" height="63" viewBox="0 0 344 63" fill="none" xmlns="http://www.w3.org/2000/svg">
<path d="M141.119 11.4742C139.634 10.0052 137.876 8.83965 135.945 8.04268C133.969 7.19104 131.838 6.75748 129.685 6.76928L120.906 6.88992C120.805 6.88868 120.706 6.9083 120.614 6.94753C120.521 6.98675 120.438 7.04473 120.369 7.11779C120.292 7.19465 120.232 7.28687 120.193 7.38847C120.154 7.49007 120.136 7.59879 120.142 7.70758V38.162C120.14 38.2623 120.16 38.3618 120.199 38.4541C120.238 38.5464 120.296 38.6295 120.369 38.6982C120.438 38.7713 120.521 38.8293 120.614 38.8685C120.706 38.9077 120.805 38.9273 120.906 38.9261H129.685C131.838 38.9379 133.969 38.5043 135.945 37.6527C137.854 36.8435 139.592 35.679 141.066 34.2212C142.539 32.7592 143.713 31.0246 144.524 29.1142C145.361 27.1333 145.792 25.0048 145.792 22.8544C145.792 20.704 145.361 18.5755 144.524 16.5946C143.713 14.6803 142.538 12.9415 141.066 11.4742M144.175 22.8544C144.189 24.7896 143.801 26.7065 143.036 28.4842C142.317 30.207 141.275 31.7766 139.966 33.1086C138.639 34.4139 137.08 35.4595 135.369 36.1916C133.589 36.9489 131.673 37.3365 129.739 37.331H121.696V8.44481L129.739 8.35098C131.673 8.34541 133.589 8.73304 135.369 9.49034C138.858 10.9546 141.631 13.7327 143.09 17.2246C143.855 19.0022 144.243 20.9192 144.229 22.8544" fill="white"/>
<path d="M165.14 22.7873C164.261 21.9153 163.224 21.2192 162.084 20.7365C160.897 20.2321 159.62 19.9722 158.331 19.9722C157.041 19.9722 155.765 20.2321 154.578 20.7365C153.437 21.2256 152.396 21.9208 151.508 22.7873C150.622 23.6603 149.916 24.6986 149.43 25.8435C148.926 27.0305 148.666 28.307 148.666 29.5967C148.666 30.8864 148.926 32.1629 149.43 33.3499C149.922 34.4993 150.627 35.5453 151.508 36.4328C152.385 37.313 153.429 38.0101 154.578 38.4837C155.767 38.9792 157.042 39.2343 158.331 39.2343C159.619 39.2343 160.895 38.9792 162.084 38.4837C163.228 38.0085 164.267 37.3115 165.14 36.4328C166.008 35.5378 166.707 34.4934 167.204 33.3499C167.709 32.1629 167.969 30.8864 167.969 29.5967C167.969 28.307 167.709 27.0305 167.204 25.8435C166.714 24.7045 166.013 23.6678 165.14 22.7873ZM166.266 29.5967C166.273 30.667 166.054 31.7267 165.623 32.7065C165.221 33.6471 164.643 34.5024 163.92 35.2265C163.195 35.9409 162.345 36.5176 161.414 36.9288C160.441 37.3504 159.391 37.565 158.331 37.5588C157.266 37.5622 156.213 37.3478 155.234 36.9288C154.292 36.5173 153.433 35.9356 152.701 35.2131C151.978 34.489 151.401 33.6337 150.999 32.6931C150.568 31.7133 150.348 30.6536 150.355 29.5833C150.35 28.5217 150.569 27.471 150.999 26.5003C151.818 24.6057 153.335 23.0988 155.234 22.2914C156.21 21.8618 157.265 21.6425 158.331 21.648C159.393 21.6395 160.444 21.8589 161.414 22.2914C163.303 23.1044 164.81 24.6107 165.623 26.5003C166.054 27.4706 166.273 28.5216 166.266 29.5833" fill="white"/>
<path d="M184.924 20.1064C184.838 20.1865 184.771 20.2844 184.727 20.3932C184.683 20.5021 184.663 20.6192 184.669 20.7364V31.4598C184.673 32.2524 184.513 33.0373 184.2 33.7654C183.892 34.4703 183.461 35.1148 182.927 35.6688C182.392 36.2421 181.743 36.6985 181.023 37.0092C180.285 37.3213 179.492 37.4809 178.691 37.4784C177.899 37.4795 177.114 37.3199 176.385 37.0092C175.671 36.6882 175.025 36.2332 174.482 35.6688C173.919 35.1248 173.464 34.4789 173.142 33.7654C172.83 33.0368 172.67 32.2523 172.672 31.4598V20.7364C172.685 20.6224 172.672 20.507 172.634 20.3987C172.596 20.2905 172.535 20.1921 172.453 20.111C172.372 20.0299 172.274 19.9681 172.166 19.9301C172.057 19.8922 171.942 19.8792 171.828 19.892C171.611 19.885 171.4 19.9618 171.238 20.1064C171.152 20.1865 171.085 20.2844 171.041 20.3932C170.997 20.5021 170.977 20.6192 170.984 20.7364V31.4598C170.98 32.4812 171.18 33.493 171.573 34.4356C171.96 35.3482 172.515 36.1802 173.209 36.8886C174.639 38.3008 176.561 39.1033 178.57 39.1271C179.806 39.1385 181.024 38.834 182.109 38.2424C183.046 37.7441 183.875 37.0653 184.549 36.2452V38.3228C184.547 38.4324 184.567 38.5412 184.608 38.6426C184.65 38.744 184.712 38.8359 184.79 38.9126C184.867 38.995 184.96 39.0602 185.064 39.1041C185.168 39.148 185.28 39.1695 185.393 39.1673C185.506 39.1687 185.617 39.1468 185.721 39.103C185.825 39.0591 185.919 38.9943 185.996 38.9126C186.075 38.8359 186.136 38.744 186.178 38.6426C186.219 38.5412 186.24 38.4324 186.238 38.3228V20.7632C186.243 20.6461 186.223 20.5292 186.179 20.4205C186.135 20.3118 186.068 20.2139 185.983 20.1332C185.819 19.9909 185.61 19.9124 185.393 19.9124C185.176 19.9124 184.967 19.9909 184.803 20.1332" fill="white"/>
<path d="M204.429 23.2965C203.55 22.4248 202.513 21.7287 201.373 21.2457C200.208 20.7467 198.954 20.4912 197.687 20.4951C196.599 20.4924 195.518 20.6831 194.497 21.058C193.581 21.3834 192.715 21.8345 191.923 22.3985V9.38292C191.937 9.2721 191.927 9.15947 191.892 9.05326C191.857 8.94705 191.799 8.84995 191.722 8.76903C191.645 8.6881 191.551 8.62541 191.447 8.58552C191.342 8.54563 191.23 8.52955 191.119 8.53846C191.005 8.52566 190.889 8.53871 190.781 8.57662C190.673 8.61454 190.574 8.67635 190.493 8.75747C190.412 8.8386 190.35 8.93694 190.312 9.04522C190.275 9.15349 190.262 9.26892 190.274 9.38292V35.7357C190.267 35.8424 190.281 35.9496 190.315 36.0508C190.35 36.1521 190.404 36.2455 190.475 36.3255C191.363 37.3617 192.471 38.1862 193.719 38.7382C194.982 39.3114 196.354 39.604 197.74 39.5961C199.008 39.5999 200.262 39.3445 201.427 38.8455C202.567 38.3625 203.604 37.6664 204.483 36.7946C205.356 35.9268 206.052 34.898 206.534 33.7653C207.029 32.5923 207.284 31.3321 207.284 30.059C207.284 28.7859 207.029 27.5256 206.534 26.3527C206.056 25.2101 205.359 24.1719 204.483 23.2965M205.622 29.9987C205.628 31.038 205.426 32.0679 205.028 33.0279C204.63 33.9879 204.043 34.8584 203.303 35.5882C202.571 36.3001 201.712 36.8684 200.77 37.2638C199.814 37.6769 198.782 37.8869 197.74 37.8804C196.662 37.8862 195.594 37.6703 194.602 37.246C193.611 36.8218 192.717 36.1982 191.977 35.414V24.6236C192.717 23.8394 193.611 23.2158 194.602 22.7915C195.594 22.3672 196.662 22.1513 197.74 22.1572C198.782 22.1507 199.814 22.3607 200.77 22.7738C201.714 23.1703 202.574 23.7436 203.303 24.4627C204.037 25.1724 204.616 26.0257 205.006 26.9693C205.423 27.943 205.633 28.993 205.622 30.0523" fill="white"/>
<path d="M211.132 8.65928C210.972 8.81959 210.88 9.03595 210.877 9.26247V38.1621C210.877 38.2725 210.9 38.3816 210.944 38.483C210.988 38.5844 211.052 38.6758 211.132 38.7518C211.208 38.8356 211.301 38.9018 211.405 38.9458C211.509 38.9898 211.622 39.0105 211.735 39.0065C211.957 38.9998 212.168 38.9087 212.325 38.7517C212.481 38.5948 212.573 38.3839 212.579 38.1621V9.26247C212.581 9.14981 212.559 9.03807 212.515 8.93427C212.471 8.83047 212.406 8.73685 212.325 8.65928C212.165 8.5045 211.951 8.41797 211.728 8.41797C211.506 8.41797 211.292 8.5045 211.132 8.65928Z" fill="white"/>
<path d="M233.663 24.8247C233.174 23.9505 232.545 23.1626 231.8 22.4923C231.077 21.851 230.253 21.3346 229.36 20.9642C228.462 20.6008 227.502 20.4142 226.532 20.4147C225.394 20.4085 224.27 20.6654 223.248 21.1653C222.226 21.6622 221.314 22.3596 220.567 23.2161C219.779 24.1158 219.161 25.1514 218.744 26.2723C217.866 28.6606 217.866 31.2832 218.744 33.6715C219.165 34.7868 219.782 35.8174 220.567 36.7142C221.318 37.5668 222.229 38.2636 223.248 38.7651C224.27 39.2649 225.394 39.5218 226.532 39.5157C227.955 39.521 229.35 39.1212 230.553 38.363C231.823 37.5735 232.878 36.4821 233.623 35.1861C233.747 34.9963 233.795 34.7664 233.757 34.5427C233.736 34.4388 233.694 34.3402 233.635 34.2527C233.575 34.1652 233.498 34.0906 233.409 34.0334C233.338 33.968 233.251 33.9224 233.157 33.9012C233.063 33.88 232.964 33.884 232.872 33.9127C232.769 33.9339 232.671 33.9772 232.585 34.0396C232.499 34.1021 232.428 34.1822 232.376 34.2747C231.8 35.3748 230.939 36.3005 229.883 36.9555C228.879 37.571 227.724 37.8958 226.546 37.8938C225.617 37.8956 224.7 37.6847 223.865 37.2772C223.016 36.8718 222.258 36.297 221.64 35.5883C220.986 34.8547 220.476 34.0043 220.138 33.0817C219.768 32.0962 219.582 31.0513 219.589 29.9987C219.589 29.7976 219.589 29.5832 219.589 29.3821C219.577 29.2304 219.577 29.0781 219.589 28.9264H234.065C234.166 28.9269 234.266 28.9042 234.356 28.86C234.447 28.8159 234.526 28.7514 234.588 28.6717C234.718 28.4877 234.784 28.2665 234.776 28.0417V27.8808C234.574 26.821 234.198 25.802 233.663 24.8649M233.073 27.2776H219.964C220.197 26.5901 220.512 25.9331 220.902 25.3206C221.317 24.6826 221.828 24.1128 222.417 23.6317C222.998 23.1693 223.644 22.7945 224.334 22.5191C225.035 22.2493 225.781 22.1129 226.532 22.117C228.004 22.1204 229.428 22.6424 230.553 23.5915C231.711 24.5565 232.563 25.8371 233.006 27.2776" fill="white"/>
<path d="M269.345 22.1973C269.277 22.1229 269.194 22.064 269.102 22.0247C269.009 21.9854 268.909 21.9665 268.809 21.9695H262.576C262.475 21.9665 262.375 21.9854 262.283 22.0247C262.19 22.064 262.107 22.1229 262.039 22.1973C261.964 22.2727 261.905 22.3627 261.866 22.4618C261.826 22.561 261.808 22.6672 261.812 22.7737C261.808 22.8795 261.828 22.9847 261.87 23.082C261.911 23.1793 261.974 23.2662 262.053 23.3367C262.195 23.4687 262.382 23.5407 262.576 23.5378H268.004V34.0467L267.924 34.1271C266.645 35.1637 265.193 35.9668 263.635 36.4997C262.083 37.0366 260.451 37.3085 258.809 37.3039C256.884 37.3154 254.977 36.9322 253.206 36.178C249.74 34.6969 246.98 31.9361 245.499 28.4705C244.746 26.6936 244.359 24.7837 244.359 22.8541C244.359 20.9246 244.746 19.0147 245.499 17.2378C246.975 13.7725 249.738 11.0146 253.206 9.54372C254.974 8.77902 256.882 8.39099 258.809 8.40436C260.504 8.39244 262.188 8.68295 263.782 9.26223C265.362 9.85036 266.83 10.7025 268.125 11.7822C268.201 11.8636 268.296 11.9255 268.4 11.9628C268.505 12.0001 268.618 12.0117 268.728 11.9967C268.93 11.9676 269.112 11.862 269.237 11.7018C269.318 11.6305 269.379 11.5407 269.416 11.4403C269.454 11.3398 269.466 11.2317 269.452 11.1254C269.411 10.9177 269.302 10.7293 269.144 10.5893C267.733 9.36145 266.105 8.40691 264.345 7.77436C262.568 7.14228 260.695 6.82036 258.809 6.82266C256.665 6.79422 254.538 7.20952 252.563 8.04244C250.661 8.85027 248.932 10.0151 247.469 11.4739C246.012 12.9362 244.843 14.6596 244.024 16.5541C243.191 18.5312 242.762 20.655 242.762 22.8005C242.762 24.946 243.191 27.0698 244.024 29.0469C244.843 30.9415 246.012 32.6649 247.469 34.1271C248.932 35.5859 250.661 36.7508 252.563 37.5586C254.526 38.4063 256.643 38.8398 258.782 38.832C262.454 38.84 266.018 37.5859 268.876 35.2799C268.962 35.2039 269.033 35.1114 269.083 35.0078C269.134 34.9043 269.164 34.7917 269.17 34.6767C269.29 34.6115 269.388 34.514 269.454 34.3955C269.521 34.277 269.552 34.1422 269.546 34.0065V22.7871C269.548 22.6808 269.529 22.575 269.49 22.4761C269.45 22.3772 269.392 22.287 269.318 22.2107L269.345 22.1973Z" fill="white"/>
<path d="M281.812 20.1063C279.312 20.0837 276.904 21.0468 275.11 22.7871V20.8033C275.112 20.5849 275.03 20.3739 274.882 20.2135C274.803 20.1261 274.705 20.0578 274.596 20.0137C274.487 19.9696 274.369 19.9508 274.252 19.9588C274.143 19.9551 274.034 19.9761 273.934 20.0202C273.835 20.0643 273.746 20.1304 273.675 20.2135C273.527 20.3739 273.446 20.5849 273.448 20.8033V38.4567C273.433 38.5675 273.444 38.6802 273.479 38.7864C273.513 38.8926 273.571 38.9897 273.648 39.0706C273.726 39.1515 273.82 39.2142 273.924 39.2541C274.028 39.294 274.14 39.3101 274.252 39.3012C274.366 39.3136 274.482 39.3004 274.591 39.2625C274.7 39.2247 274.799 39.1631 274.881 39.0823C274.963 39.0015 275.026 38.9034 275.066 38.7952C275.105 38.687 275.12 38.5714 275.11 38.4567V25.468C275.812 24.3415 276.796 23.4175 277.965 22.7871C279.148 22.1411 280.477 21.8088 281.825 21.822C281.938 21.8234 282.05 21.8015 282.153 21.7577C282.257 21.7139 282.351 21.6491 282.428 21.5673C282.507 21.4907 282.568 21.3988 282.61 21.2974C282.651 21.1959 282.672 21.0871 282.67 20.9776C282.678 20.8601 282.659 20.7424 282.615 20.6333C282.571 20.5241 282.502 20.4264 282.415 20.3476C282.255 20.1993 282.044 20.1178 281.825 20.1197" fill="white"/>
<path d="M301.93 24.8248C301.364 23.9391 300.658 23.1514 299.839 22.4925C299.003 21.8438 298.072 21.3284 297.078 20.9644C294.832 20.1673 292.37 20.239 290.175 21.1654C289.045 21.652 288.017 22.3478 287.145 23.2163C286.269 24.0916 285.572 25.1298 285.095 26.2725C284.599 27.4429 284.344 28.701 284.344 29.972C284.344 31.2431 284.599 32.5011 285.095 33.6716C286.067 35.9615 287.887 37.7867 290.175 38.7652C291.491 39.3213 292.915 39.5739 294.342 39.5043C295.77 39.4347 297.163 39.0446 298.418 38.3631C299.811 37.5997 300.998 36.5095 301.877 35.1863C302.004 34.9978 302.057 34.7682 302.024 34.5429C301.964 34.3299 301.825 34.1478 301.635 34.0335C301.549 33.9675 301.448 33.9223 301.341 33.9013C301.234 33.8804 301.124 33.8844 301.019 33.9129C300.907 33.9318 300.801 33.9738 300.706 34.0361C300.611 34.0984 300.531 34.1797 300.469 34.2748C299.783 35.4005 298.812 36.3252 297.654 36.9556C296.5 37.5743 295.211 37.8967 293.901 37.8939C292.842 37.9048 291.792 37.6948 290.818 37.2774C289.88 36.8835 289.029 36.3097 288.312 35.5884C287.584 34.8454 287.011 33.965 286.627 32.9984C286.242 32.0319 286.054 30.9986 286.073 29.9586C286.073 29.7576 286.073 29.5431 286.073 29.342C286.073 29.141 286.073 29.0471 286.073 28.8863H302.386C302.495 28.89 302.604 28.8691 302.703 28.825C302.803 28.7809 302.892 28.7148 302.962 28.6316C303.116 28.4581 303.197 28.2329 303.19 28.0016V27.8408C302.944 26.7715 302.518 25.7518 301.93 24.8248ZM286.475 27.2376C286.744 26.5406 287.105 25.8825 287.548 25.2805C288.018 24.6273 288.593 24.0566 289.25 23.5916C289.918 23.1289 290.643 22.7549 291.408 22.4791C292.591 22.0864 293.85 21.9789 295.082 22.1653C296.314 22.3516 297.485 22.8266 298.499 23.5514C299.77 24.477 300.736 25.7604 301.273 27.2376H286.475Z" fill="white"/>
<path d="M323.432 24.8248C322.861 23.9386 322.151 23.151 321.328 22.4924C320.493 21.8411 319.561 21.3254 318.566 20.9644C317.547 20.5992 316.472 20.4133 315.39 20.4148C314.113 20.4058 312.849 20.6613 311.677 21.1654C309.384 22.1478 307.559 23.9773 306.583 26.2724C306.096 27.4451 305.846 28.7023 305.846 29.972C305.846 31.2417 306.096 32.4989 306.583 33.6716C307.074 34.8062 307.775 35.8384 308.647 36.7144C309.519 37.5828 310.547 38.2787 311.677 38.7652C312.99 39.3211 314.413 39.5736 315.838 39.504C317.262 39.4344 318.653 39.0444 319.907 38.3631C321.3 37.5997 322.486 36.5095 323.365 35.1863C323.438 35.0993 323.49 34.997 323.517 34.887C323.545 34.7771 323.547 34.6624 323.524 34.5515C323.5 34.4406 323.452 34.3364 323.383 34.2466C323.314 34.1569 323.225 34.0841 323.124 34.0335C323.037 33.9675 322.936 33.9222 322.83 33.9013C322.723 33.8804 322.612 33.8844 322.507 33.9129C322.396 33.9318 322.289 33.9738 322.194 34.0361C322.1 34.0984 322.019 34.1797 321.958 34.2748C321.275 35.4033 320.303 36.3289 319.143 36.9556C317.989 37.5759 316.699 37.8984 315.39 37.8939C314.33 37.9047 313.28 37.6948 312.307 37.2773C310.874 36.6675 309.655 35.6467 308.804 34.3439C307.952 33.0412 307.506 31.515 307.521 29.9586C307.521 29.7441 307.521 29.5431 307.521 29.342C307.521 29.141 307.521 29.0471 307.521 28.8863H323.874C323.985 28.8901 324.096 28.8693 324.198 28.8252C324.3 28.7812 324.391 28.715 324.464 28.6316C324.614 28.4568 324.69 28.2313 324.679 28.0016V27.8407C324.439 26.7714 324.017 25.7512 323.432 24.8248ZM322.762 27.2375H308.017C308.282 26.541 308.638 25.8829 309.076 25.2805C309.553 24.6335 310.128 24.0638 310.778 23.5916C311.447 23.121 312.178 22.7465 312.95 22.479C313.748 22.2069 314.586 22.071 315.43 22.0769C317.082 22.0556 318.696 22.5732 320.027 23.5514C321.302 24.4735 322.269 25.758 322.802 27.2375" fill="white"/>
<path d="M342.652 24.5968C342.274 23.6868 341.723 22.8584 341.03 22.1572C340.319 21.4433 339.472 20.8778 338.54 20.4936C337.609 20.1093 336.61 19.9139 335.602 19.9187C334.368 19.9096 333.151 20.2091 332.063 20.79C331.121 21.2868 330.287 21.9657 329.61 22.7872V20.723C329.617 20.5061 329.54 20.295 329.395 20.1332C329.315 20.0473 329.217 19.9801 329.109 19.9361C329 19.8921 328.883 19.8724 328.765 19.8785C328.656 19.8748 328.548 19.8957 328.448 19.9399C328.348 19.984 328.26 20.0501 328.189 20.1332C328.041 20.2936 327.959 20.5046 327.961 20.723V38.363C327.945 38.4748 327.954 38.589 327.987 38.6969C328.021 38.8048 328.079 38.9037 328.156 38.9862C328.233 39.0686 328.328 39.1326 328.434 39.1732C328.539 39.2139 328.653 39.2302 328.765 39.2209C328.881 39.2341 328.997 39.2208 329.107 39.1822C329.216 39.1435 329.315 39.0804 329.397 38.9978C329.478 38.9151 329.54 38.815 329.577 38.705C329.614 38.595 329.625 38.478 329.61 38.363V27.6396C329.607 26.8428 329.767 26.0538 330.079 25.3207C330.702 23.8932 331.842 22.7538 333.269 22.1304C334.003 21.8208 334.792 21.6612 335.588 21.6612C336.385 21.6612 337.173 21.8208 337.907 22.1304C338.622 22.4512 339.268 22.9062 339.811 23.4709C340.367 24.0206 340.821 24.6652 341.151 25.3743C341.463 26.1074 341.623 26.8964 341.62 27.6932V38.4166C341.612 38.5341 341.631 38.6518 341.675 38.7609C341.719 38.87 341.787 38.9677 341.875 39.0466C342.036 39.1945 342.246 39.2766 342.465 39.2766C342.683 39.2766 342.894 39.1945 343.054 39.0466C343.142 38.9677 343.21 38.87 343.254 38.7609C343.298 38.6518 343.317 38.5341 343.309 38.4166V27.6932C343.312 26.6677 343.111 25.6518 342.719 24.7041" fill="white"/>
<path d="M120.278 55.8421C120.265 55.4364 120.334 55.0324 120.481 54.654C120.627 54.2755 120.848 53.9304 121.131 53.6391C121.414 53.3478 121.752 53.1162 122.126 52.9581C122.499 52.8001 122.901 52.7187 123.307 52.7189C123.741 52.7147 124.171 52.8008 124.57 52.9715C124.97 53.1422 125.329 53.394 125.626 53.7108L125.331 54.0057C125.07 53.7271 124.754 53.5049 124.404 53.3528C124.053 53.2007 123.675 53.1218 123.293 53.121C122.572 53.121 121.88 53.4077 121.369 53.918C120.859 54.4283 120.572 55.1204 120.572 55.8421C120.572 56.5638 120.859 57.2559 121.369 57.7662C121.88 58.2765 122.572 58.5631 123.293 58.5631C123.686 58.562 124.075 58.4778 124.433 58.3161C124.791 58.1544 125.111 57.9188 125.371 57.6248L125.666 57.9063C125.365 58.2435 124.995 58.5123 124.581 58.695C124.167 58.8776 123.719 58.9697 123.267 58.9653C122.862 58.9656 122.461 58.8841 122.089 58.7257C121.717 58.5674 121.38 58.3354 121.1 58.0436C120.819 57.7519 120.601 57.4065 120.457 57.0282C120.314 56.6499 120.248 56.2464 120.264 55.8421" fill="#72BF44"/>
<path d="M129.888 53.2417H127.783V52.8262H132.434V53.2417H130.33V58.8581H129.888V53.2417Z" fill="#72BF44"/>
<path d="M134.967 58.7643L135.141 58.3755C135.387 58.4955 135.659 58.5508 135.932 58.5364C136.233 58.511 136.52 58.3987 136.758 58.213C136.996 58.0274 137.175 57.7764 137.273 57.4909L134.592 52.8262H135.115L137.541 57.0217L139.605 52.8262H140.101L137.688 57.6383C137.561 58.0077 137.328 58.3316 137.018 58.5698C136.708 58.8081 136.335 58.9503 135.946 58.9787C135.613 58.9866 135.283 58.9178 134.981 58.7777" fill="#72BF44"/>
<path d="M141.496 58.4424H142.153C142.877 57.1143 143.211 55.6091 143.118 54.0995V52.759H146.818V58.4424H147.635L147.555 60.2386H147.166V58.8982H141.965L141.885 60.2386H141.496V58.4424ZM146.375 58.4424V53.2416H143.56V54.4212C143.625 55.8177 143.315 57.2063 142.662 58.4424H146.375Z" fill="#72BF44"/>
<path d="M150.088 52.8262H150.53V58.2147L154.458 52.8262H154.9V58.8581H154.458V53.4696L150.53 58.8581H150.088V52.8262Z" fill="#72BF44"/>
<path d="M159.43 56.3649C159.202 56.3597 158.976 56.3094 158.767 56.217C158.557 56.1246 158.368 55.9918 158.21 55.8262C158.052 55.6607 157.928 55.4656 157.845 55.2521C157.763 55.0386 157.723 54.811 157.728 54.5821C157.728 53.5902 158.546 52.8262 159.886 52.8262H162.433V58.8581H161.977V56.4453H159.926L158.077 58.8581H157.514L159.43 56.3649ZM161.977 56.0432V53.2417H159.913C158.814 53.2417 158.184 53.7913 158.184 54.5821C158.184 55.373 158.935 56.003 159.94 56.003L161.977 56.0432Z" fill="#72BF44"/>
<path d="M168.504 58.7777L168.638 58.4023C168.826 58.475 169.026 58.5114 169.228 58.5096C169.683 58.5096 170.568 58.2147 170.568 53.9789V52.8262H174.268V58.8581H173.825V53.2417H170.997V53.9923C170.997 58.3755 170.112 58.9251 169.241 58.9251C168.994 58.9138 168.749 58.8641 168.517 58.7777" fill="#72BF44"/>
<path d="M179.63 52.7725H180.072L182.887 58.858H182.391L181.613 57.1691H178.061L177.284 58.858H176.828L179.63 52.7725ZM181.426 56.7937L179.844 53.2952L178.249 56.7937H181.426Z" fill="#72BF44"/>
<path d="M185.447 52.8262H185.903V55.6143H189.763V52.8262H190.219V58.8581H189.763V56.0298H185.903V58.8581H185.447V52.8262Z" fill="#72BF44"/>
<path d="M192.484 58.4424H193.141C193.865 57.1143 194.199 55.6091 194.106 54.0995V52.759H197.806V58.4424H198.624L198.543 60.2386H198.154V58.8982H192.954L192.873 60.2386H192.484V58.4424ZM197.364 58.4424V53.2416H194.549V54.4212C194.614 55.8177 194.304 57.2063 193.651 58.4424H197.364Z" fill="#72BF44"/>
<path d="M201.076 52.8262H201.519V58.4426H204.695V52.8262H205.151V58.4426H208.328V52.8262H208.77V58.8581H201.076V52.8262Z" fill="#72BF44"/>
<path d="M214.161 52.7725H214.59L217.404 58.858H216.908L216.144 57.1691H212.579L211.815 58.858H211.346L214.161 52.7725ZM215.957 56.7937L214.362 53.2952L212.767 56.7937H215.957Z" fill="#72BF44"/>
<path d="M222.308 58.4156H222.026C221.687 58.4156 221.35 58.3487 221.036 58.2187C220.723 58.0887 220.437 57.8981 220.197 57.6579C219.957 57.4177 219.766 57.1325 219.636 56.8186C219.506 56.5048 219.439 56.1684 219.439 55.8286C219.439 55.4889 219.506 55.1525 219.636 54.8386C219.766 54.5247 219.957 54.2395 220.197 53.9993C220.437 53.7591 220.723 53.5685 221.036 53.4385C221.35 53.3085 221.687 53.2416 222.026 53.2416H222.308V52.625H222.75V53.2416H223.072C223.412 53.2416 223.748 53.3085 224.062 53.4385C224.376 53.5685 224.661 53.7591 224.901 53.9993C225.142 54.2395 225.332 54.5247 225.462 54.8386C225.592 55.1525 225.659 55.4889 225.659 55.8286C225.659 56.1684 225.592 56.5048 225.462 56.8186C225.332 57.1325 225.142 57.4177 224.901 57.6579C224.661 57.8981 224.376 58.0887 224.062 58.2187C223.748 58.3487 223.412 58.4156 223.072 58.4156H222.777V59.0859H222.335L222.308 58.4156ZM222.308 58.0001V53.6169H222.026C221.726 53.5881 221.423 53.6237 221.138 53.7215C220.852 53.8192 220.591 53.9768 220.372 54.1836C220.152 54.3905 219.979 54.6419 219.865 54.921C219.75 55.2 219.697 55.5003 219.708 55.8018C219.694 56.1034 219.746 56.4043 219.86 56.6838C219.974 56.9634 220.147 57.2149 220.367 57.4213C220.588 57.6276 220.85 57.7837 221.136 57.879C221.423 57.9743 221.726 58.0065 222.026 57.9733L222.308 58.0001ZM223.045 58.0001C223.344 58.0312 223.646 57.9975 223.931 57.9013C224.216 57.8051 224.477 57.6486 224.695 57.4425C224.914 57.2364 225.086 56.9855 225.199 56.707C225.312 56.4285 225.364 56.1289 225.351 55.8286C225.365 55.5286 225.315 55.2291 225.205 54.9498C225.094 54.6705 224.926 54.4179 224.71 54.2087C224.495 53.9996 224.237 53.8386 223.955 53.7366C223.672 53.6346 223.371 53.5938 223.072 53.6169H222.777V57.9733L223.045 58.0001Z" fill="#72BF44"/>
<path d="M229.681 53.2417H227.576V52.8262H232.241V53.2417H230.136V58.8581H229.681V53.2417Z" fill="#72BF44"/>
<path d="M234.896 52.8262H235.352V55.6143H239.213V52.8262H239.668V58.8581H239.213V56.0298H235.352V58.8581H234.896V52.8262Z" fill="#72BF44"/>
<path d="M242.482 55.842C242.5 55.2439 242.694 54.6646 243.04 54.1765C243.386 53.6883 243.868 53.313 244.427 53.0974C244.985 52.8818 245.594 52.8356 246.178 52.9645C246.763 53.0934 247.296 53.3916 247.711 53.822C248.127 54.2524 248.407 54.7957 248.515 55.3841C248.624 55.9725 248.556 56.5799 248.321 57.1302C248.087 57.6805 247.695 58.1493 247.195 58.4781C246.695 58.8068 246.109 58.9809 245.511 58.9786C245.106 58.9769 244.705 58.8943 244.332 58.7356C243.959 58.5769 243.621 58.3453 243.339 58.0543C243.057 57.7634 242.836 57.419 242.688 57.0414C242.541 56.6638 242.471 56.2606 242.482 55.8554M248.085 55.8554C248.085 55.1626 247.817 54.4965 247.338 53.9967C246.858 53.4969 246.203 53.2022 245.511 53.1745C245.165 53.1779 244.824 53.2504 244.507 53.3879C244.19 53.5253 243.904 53.7248 243.665 53.9747C243.426 54.2246 243.24 54.5198 243.118 54.8428C242.995 55.1658 242.938 55.5101 242.951 55.8554C242.95 56.5482 243.218 57.2143 243.698 57.7141C244.177 58.2139 244.832 58.5085 245.524 58.5362C245.87 58.5329 246.211 58.4603 246.528 58.3229C246.845 58.1855 247.131 57.9859 247.37 57.7361C247.609 57.4862 247.795 57.191 247.918 56.868C248.04 56.545 248.097 56.2007 248.085 55.8554Z" fill="#72BF44"/>
<path d="M251.383 52.8263H251.825V58.188L255.753 52.8263H256.195V58.8583H255.739V53.4965L251.825 58.8583H251.383V52.8263ZM252.629 51.3251L252.978 51.2446C253.019 51.4289 253.122 51.5936 253.269 51.7116C253.417 51.8297 253.6 51.894 253.789 51.894C253.978 51.894 254.161 51.8297 254.308 51.7116C254.456 51.5936 254.559 51.4289 254.6 51.2446L254.962 51.3251C254.919 51.604 254.778 51.8584 254.564 52.0423C254.35 52.2262 254.078 52.3273 253.796 52.3273C253.513 52.3273 253.241 52.2262 253.027 52.0423C252.813 51.8584 252.672 51.604 252.629 51.3251Z" fill="#72BF44"/>
<path d="M265.457 52.7725H265.886L268.701 58.858H268.205L267.441 57.1691H263.876L263.112 58.858H262.643L265.457 52.7725ZM267.254 56.7937L265.659 53.2952L264.063 56.7937H267.254Z" fill="#72BF44"/>
<path d="M271.328 52.8262H273.513C274.853 52.8262 275.765 53.4964 275.765 54.6894C275.765 55.8823 274.666 56.6062 273.406 56.6062H271.77V58.8581H271.328V52.8262ZM273.433 56.1906C274.559 56.1906 275.309 55.6143 275.309 54.6894C275.309 53.7645 274.572 53.2417 273.486 53.2417H271.77V56.1906H273.433Z" fill="#72BF44"/>
<path d="M280.108 55.7751L277.789 52.8262H278.325L280.39 55.4802L282.44 52.8262H282.963L280.658 55.7751L283.057 58.8581H282.521L280.363 56.07L278.231 58.8581H277.695L280.108 55.7751Z" fill="#72BF44"/>
<path d="M285.686 52.8262H286.128V58.2147L290.055 52.8262H290.498V58.8581H290.055V53.4696L286.128 58.8581H285.686V52.8262Z" fill="#72BF44"/>
<path d="M295.255 53.2417H293.15V52.8262H297.815V53.2417H295.711V58.8581H295.255V53.2417Z" fill="#72BF44"/>
<path d="M300.471 52.8262H304.76V53.2417H300.913V55.6143H304.385V56.0298H300.913V58.4426H304.814V58.8581H300.471V52.8262Z" fill="#72BF44"/>
<path d="M307.547 52.8262H307.989V56.7938L311.836 52.8262H312.453L309.812 55.4936L312.56 58.8581H311.984L309.49 55.8019L307.989 57.33V58.8581H307.547V52.8262Z" fill="#72BF44"/>
<path d="M316.688 53.2417H314.57V52.8262H319.235V53.2417H317.131V58.8581H316.688V53.2417Z" fill="#72BF44"/>
<path d="M321.768 58.7643L321.942 58.3755C322.188 58.4955 322.46 58.5508 322.733 58.5364C323.034 58.511 323.321 58.3987 323.559 58.213C323.797 58.0274 323.976 57.7764 324.073 57.4909L321.393 52.8262H321.915L324.341 57.0217L326.406 52.8262H326.902L324.489 57.6383C324.361 58.0097 324.126 58.335 323.813 58.5734C323.501 58.8118 323.125 58.9528 322.733 58.9787C322.4 58.9866 322.07 58.9178 321.768 58.7777" fill="#72BF44"/>
<path d="M329.463 52.8262H331.648C332.988 52.8262 333.9 53.4964 333.9 54.6894C333.9 55.8823 332.801 56.6062 331.541 56.6062H329.905V58.8581H329.463V52.8262ZM331.567 56.1906C332.68 56.1906 333.444 55.6143 333.444 54.6894C333.444 53.7645 332.707 53.2417 331.621 53.2417H329.905V56.1906H331.567Z" fill="#72BF44"/>
<path d="M336.516 52.8262H337.012V55.2389H338.794C339.947 55.2389 340.993 55.7349 340.993 56.9815C340.991 57.2521 340.932 57.5194 340.819 57.7654C340.706 58.0114 340.542 58.2305 340.338 58.4081C340.134 58.5857 339.894 58.7177 339.635 58.7953C339.376 58.8729 339.103 58.8943 338.835 58.8581H336.556L336.516 52.8262ZM338.727 58.4426C339.813 58.4426 340.483 57.9734 340.483 56.9949C340.483 56.0164 339.786 55.6545 338.674 55.6545H337.012V58.4426H338.727ZM341.783 52.8262H342.226V58.8581H341.783V52.8262Z" fill="#72BF44"/>
<path d="M36.1523 44.2341C41.8831 44.2341 47.379 41.9576 51.4313 37.9054C55.4835 33.8532 57.76 28.3572 57.76 22.6265C57.76 16.8958 55.4835 11.3998 51.4313 7.34754C47.379 3.29531 41.8831 1.0188 36.1523 1.0188V44.2341Z" fill="#72BF44"/>
<path d="M78.842 44.2339C74.5679 44.2339 70.3897 42.9663 66.8361 40.5914C63.2824 38.2165 60.5129 34.8411 58.8779 30.892C57.2428 26.943 56.8157 22.5977 57.6506 18.4058C58.4854 14.214 60.5446 10.3639 63.5679 7.34256C66.5911 4.32121 70.4425 2.26434 74.6348 1.43212C78.8272 0.599894 83.1722 1.02971 87.1202 2.6672C91.0683 4.30469 94.442 7.07628 96.8147 10.6314C99.1873 14.1865 100.452 18.3655 100.45 22.6396C100.439 28.3658 98.1587 33.8543 94.1084 37.9021C90.0581 41.9498 84.5683 44.2268 78.842 44.2339ZM78.842 1.83622C74.7307 1.83623 70.7117 3.0552 67.2931 5.33904C63.8745 7.62288 61.2098 10.869 59.6359 14.6671C58.0619 18.4652 57.6494 22.6447 58.4505 26.6772C59.2516 30.7097 61.2304 34.4142 64.1366 37.3222C67.0428 40.2303 70.7459 42.2114 74.7779 43.0151C78.8099 43.8188 82.9896 43.409 86.7887 41.8375C90.5878 40.266 93.8357 37.6034 96.1218 34.1863C98.4078 30.7691 99.6294 26.7509 99.632 22.6396C99.625 17.128 97.4323 11.8441 93.535 7.94671C89.6376 4.04937 84.3537 1.85672 78.842 1.84963" fill="#72BF44"/>
<path d="M36.2053 44.2339C31.9312 44.2339 27.753 42.9663 24.1994 40.5914C20.6457 38.2165 17.8762 34.8411 16.2412 30.892C14.6061 26.943 14.179 22.5977 15.0138 18.4058C15.8487 14.214 17.9079 10.3639 20.9311 7.34256C23.9544 4.32121 27.8057 2.26434 31.9981 1.43212C36.1905 0.599894 40.5355 1.02971 44.4835 2.6672C48.4316 4.30469 51.8053 7.07628 54.178 10.6314C56.5506 14.1865 57.8156 18.3655 57.813 22.6396C57.8023 28.3658 55.522 33.8543 51.4717 37.9021C47.4214 41.9498 41.9315 44.2268 36.2053 44.2339ZM36.2053 1.83622C32.094 1.83623 28.075 3.0552 24.6564 5.33904C21.2378 7.62288 18.5731 10.869 16.9992 14.6671C15.4252 18.4652 15.0127 22.6447 15.8138 26.6772C16.6149 30.7097 18.5936 34.4142 21.4998 37.3222C24.406 40.2303 28.1092 42.2114 32.1412 43.0151C36.1732 43.8188 40.3529 43.409 44.152 41.8375C47.9511 40.266 51.199 37.6034 53.4851 34.1863C55.7711 30.7691 56.9927 26.7509 56.9953 22.6396C56.9882 17.128 54.7956 11.8441 50.8982 7.94671C47.0009 4.04937 41.717 1.85672 36.2053 1.84963" fill="#72BF44"/>
<path d="M36.9285 0.95166H36.084V62.5308H36.9285V0.95166Z" fill="white"/>
<path d="M57.6532 22.4521C57.5821 25.2809 58.0778 28.0952 59.1111 30.7294C60.1445 33.3636 61.6946 35.7643 63.6701 37.7901C65.6457 39.816 68.0067 41.426 70.614 42.5252C73.2214 43.6245 76.0224 44.1908 78.852 44.1908C81.6816 44.1908 84.4826 43.6245 87.09 42.5252C89.6974 41.426 92.0584 39.816 94.0339 37.7901C96.0094 35.7643 97.5595 33.3636 98.5929 30.7294C99.6263 28.0952 100.122 25.2809 100.051 22.4521H57.6532Z" fill="#72BF44"/>
<path d="M79.6882 44.0063H78.8438V62.4506H79.6882V44.0063Z" fill="white"/>
<path d="M79.6498 23.2698V0.764078C76.6811 0.720808 73.7338 1.27318 70.9822 2.38854C68.2307 3.5039 65.7307 5.15961 63.63 7.25778C61.5293 9.35595 59.8706 11.854 58.752 14.6042C57.6334 17.3545 57.0775 20.3011 57.1172 23.2698H79.6498Z" fill="white"/>
<path d="M101.095 63H13.5254V0H101.095V63ZM14.772 61.807H99.8354V1.08574H14.7318L14.772 61.807Z" fill="#72BF44"/>
<path d="M79.6883 22.4521H0V23.2966H79.6883V22.4521Z" fill="white"/>
</svg>
